<?xml version="1.0" standalone="no"?>
<!DOCTYPE svg PUBLIC "-//W3C//DTD SVG 20010904//EN"
 "http://www.w3.org/TR/2001/REC-SVG-20010904/DTD/svg10.dtd">
<svg version="1.0" xmlns="http://www.w3.org/2000/svg"
 width="1024.000000pt" height="1536.000000pt" viewBox="0 0 1024.000000 1536.000000"
 preserveAspectRatio="xMidYMid meet">

<g transform="translate(0.000000,1536.000000) scale(0.100000,-0.100000)"
fill="#000000" stroke="none">
<path d="M4731 13239 c-424 -57 -872 -310 -1187 -670 -136 -155 -366 -450
-593 -757 -308 -419 -481 -817 -481 -1106 0 -171 36 -335 126 -575 73 -196 73
-289 0 -360 -45 -43 -96 -51 -160 -22 -56 24 -62 18 -53 -63 15 -152 153 -273
321 -284 39 -2 90 1 114 6 l42 10 0 -77 c0 -129 47 -239 134 -318 84 -75 184
-113 299 -113 57 0 61 -2 111 -47 84 -77 224 -132 334 -133 l32 0 0 -57 c-1
-113 -20 -309 -35 -357 -18 -60 -35 -79 -140 -161 -274 -213 -643 -407 -977
-514 -54 -17 -182 -53 -285 -80 -229 -60 -337 -98 -468 -161 -135 -66 -215
-120 -312 -213 -261 -251 -346 -524 -468 -1510 -27 -217 -34 -301 -26 -311 6
-7 29 -18 52 -25 l41 -13 -6 -126 c-15 -290 -26 -831 -26 -1347 0 -626 -5
-586 83 -604 291 -60 1345 -131 2397 -163 547 -16 2266 -16 2740 0 1244 43
1435 51 1855 83 421 31 783 76 852 104 56 24 57 14 -27 630 -71 517 -95 728
-135 1185 -33 380 -57 616 -71 702 -5 36 -5 37 36 48 22 6 44 18 47 27 8 20
-90 418 -173 708 -176 615 -308 861 -558 1047 -166 124 -350 190 -716 258
-843 156 -1173 265 -1380 456 -55 51 -59 58 -70 121 l-11 67 33 25 c18 14 56
47 84 73 28 27 55 48 61 48 5 0 20 -12 34 -26 42 -47 115 -74 194 -73 123 1
176 38 126 88 -26 26 -27 67 -2 80 10 6 63 22 117 36 115 29 221 78 281 130
37 31 86 113 106 177 5 14 12 14 69 -10 43 -17 88 -27 143 -30 108 -5 177 20
252 93 70 68 69 87 -6 97 -61 7 -112 42 -143 98 -16 29 -19 49 -15 121 5 101
23 142 132 309 173 264 240 506 214 780 -13 137 -32 223 -122 540 -42 146 -99
353 -127 460 -97 369 -195 620 -310 790 -285 425 -665 671 -1030 669 -102 0
-183 -12 -188 -28 -6 -19 -20 -13 -84 39 -116 94 -285 166 -493 210 -116 25
-457 36 -584 19z m635 -1079 c91 -21 201 -63 305 -115 67 -34 74 -35 142 -29
65 5 81 2 162 -26 138 -49 243 -107 306 -170 71 -70 105 -136 114 -220 32
-298 139 -518 317 -655 l26 -20 -8 -250 c-5 -140 -15 -294 -24 -350 -19 -118
-118 -591 -151 -720 -28 -111 -114 -344 -165 -446 -92 -183 -262 -393 -422
-521 -303 -244 -542 -394 -689 -434 -92 -24 -260 -23 -369 4 -181 44 -314 117
-491 269 -295 254 -551 594 -653 865 -30 80 -80 298 -111 486 -30 179 -51 210
-90 128 -9 -18 -31 -48 -50 -66 l-34 -33 6 72 c5 66 4 74 -17 96 -34 36 -100
35 -129 -1 -12 -15 -21 -33 -21 -41 0 -26 -48 16 -89 78 -66 99 -100 229 -121
460 -26 292 39 504 149 484 103 -19 168 -106 255 -341 21 -56 46 -116 57 -134
17 -28 22 -31 34 -19 16 17 81 199 165 460 l63 196 66 7 c83 7 197 39 264 72
140 70 346 261 435 404 30 47 85 139 124 205 104 179 209 274 339 309 78 21
209 19 305 -4z m1718 -1676 c33 -86 -78 -442 -202 -649 -64 -107 -213 -288
-226 -274 -2 2 4 40 15 84 11 44 44 204 75 355 37 181 63 287 77 310 45 76 98
129 159 159 69 35 93 38 102 15z m-3673 -564 c-15 -71 -14 -134 4 -177 8 -20
14 -38 11 -40 -9 -9 -55 21 -65 44 -24 52 -6 186 31 230 21 26 31 -2 19 -57z
m580 -1150 c43 -52 128 -146 190 -209 258 -259 448 -387 672 -452 102 -30 336
-38 427 -15 130 33 309 132 517 284 105 76 113 80 117 60 14 -68 36 -255 36
-311 0 -36 -9 -116 -20 -179 -70 -411 -329 -800 -675 -1017 -90 -56 -208 -104
-287 -116 -41 -6 -46 -4 -62 19 -22 35 -68 35 -101 1 l-23 -26 -68 16 c-196
45 -420 168 -581 319 -138 128 -229 265 -290 434 -94 264 -114 501 -50 595 49
73 72 222 83 537 6 193 8 203 23 180 9 -14 50 -68 92 -120z m2219 -658 c162
-88 395 -165 705 -233 83 -18 152 -34 154 -36 2 -1 -26 -63 -62 -136 -85 -170
-198 -342 -319 -482 -289 -335 -755 -625 -1180 -734 -132 -34 -385 -81 -434
-81 l-34 0 0 125 c0 112 -2 127 -20 145 -12 12 -33 20 -55 20 -59 0 -39 17 40
35 191 42 355 139 543 319 286 274 482 713 482 1078 l0 99 53 -39 c28 -21 86
-57 127 -80z m-2538 -99 c-8 -140 53 -405 132 -578 51 -110 123 -211 227 -320
l97 -100 -112 7 c-228 14 -475 57 -801 142 -93 25 -171 43 -173 41 -8 -7 125
-69 229 -106 213 -76 494 -125 819 -144 105 -6 113 -6 95 9 -23 18 -39 21 -30
5 5 -7 -4 -9 -27 -5 -18 3 -82 8 -143 11 -225 13 -443 51 -652 116 -59 19
-100 36 -96 42 3 6 1 7 -5 3 -6 -3 -29 1 -52 10 -77 31 -31 27 102 -9 268 -73
581 -125 773 -128 76 -1 94 -5 116 -23 104 -88 359 -207 526 -247 51 -13 93
-26 93 -29 0 -3 -19 -10 -42 -16 -60 -13 -68 -34 -68 -181 l0 -123 -62 0 c-85
0 -397 36 -528 61 -532 102 -1055 366 -1365 690 -119 125 -279 332 -264 342 2
2 54 18 114 36 321 96 709 289 995 494 58 42 105 76 106 76 0 1 -1 -34 -4 -76z
m1290 -1560 c2 -105 -1 -171 -7 -175 -5 -4 -44 -8 -85 -8 -41 0 -80 4 -86 8
-7 5 -11 63 -10 175 l1 167 91 0 92 0 4 -167z m3762 -685 c10 -60 35 -320 61
-633 47 -572 73 -802 155 -1377 28 -191 50 -358 50 -372 0 -29 8 -27 -220 -56
-222 -27 -449 -47 -735 -65 -137 -8 -285 -17 -327 -20 -74 -5 -78 -5 -83 17
-31 142 -84 488 -125 823 -17 138 -32 256 -35 263 -2 7 8 63 24 125 70 272 69
587 -3 874 l-24 92 32 10 c17 6 85 24 152 40 163 41 712 199 904 260 85 27
158 50 161 50 4 1 9 -14 13 -31z m-7398 -498 c166 -58 635 -178 874 -225 l85
-17 -1 -206 0 -207 -62 -31 c-107 -54 -207 -66 -321 -39 -138 33 -262 117
-331 226 -50 77 -81 48 -38 -37 32 -66 137 -160 222 -200 183 -86 357 -86 511
-1 l41 23 23 -90 c28 -108 87 -261 143 -369 l40 -77 -27 -318 c-15 -174 -29
-347 -32 -384 -5 -63 -7 -68 -29 -68 -135 0 -861 58 -1069 85 -60 8 -116 15
-122 15 -16 0 -17 492 -3 1180 11 534 20 760 30 760 4 0 33 -9 66 -20z m6105
-1385 c16 -126 45 -322 65 -434 19 -112 32 -207 28 -210 -3 -3 -57 -8 -120
-10 l-114 -3 0 84 c0 136 19 393 41 541 24 170 62 336 67 292 1 -16 16 -133
33 -260z m-4793 -13 c27 -124 71 -494 72 -593 l0 -46 -77 5 c-43 2 -79 5 -80
6 0 0 3 39 7 86 5 47 16 175 25 285 21 268 26 315 35 310 5 -3 13 -27 18 -53z"/>
<path d="M4314 11185 c-123 -27 -229 -95 -286 -184 -46 -74 -33 -100 33 -66
98 51 362 79 532 56 49 -7 152 -30 230 -53 201 -58 277 -55 277 11 0 52 -35
90 -123 131 -201 96 -493 142 -663 105z"/>
<path d="M5965 11016 c-262 -41 -365 -119 -461 -347 -83 -197 -83 -378 1 -729
34 -144 42 -244 22 -292 -30 -71 -164 -138 -245 -123 -21 3 -71 27 -113 51
-53 31 -99 49 -148 58 -39 8 -77 19 -85 25 -26 21 -28 61 -7 104 15 30 18 44
9 54 -16 20 -27 16 -63 -20 -43 -43 -53 -93 -30 -152 22 -58 57 -82 148 -99
52 -10 94 -26 140 -55 116 -71 211 -78 322 -25 180 85 210 193 140 505 -71
317 -79 419 -46 551 26 103 83 213 119 232 52 27 157 56 257 71 252 38 500 1
618 -91 25 -20 51 -33 57 -29 27 17 -34 154 -97 219 -44 45 -110 80 -181 95
-68 14 -254 13 -357 -3z"/>
<path d="M3220 10865 c-15 -18 -6 -45 14 -45 18 0 55 -48 90 -117 l26 -52 -40
-68 c-83 -141 -82 -241 3 -322 43 -41 57 -27 32 32 -23 57 -19 133 12 197 l26
55 16 -80 c18 -88 25 -105 45 -105 33 0 36 170 5 263 -31 91 -87 193 -126 227
-37 33 -83 40 -103 15z"/>
<path d="M4391 10769 c-96 -19 -255 -119 -236 -149 10 -16 32 -12 124 24 47
18 99 37 115 40 25 6 28 5 21 -11 -5 -10 -10 -52 -13 -94 -3 -63 0 -83 17
-117 24 -48 55 -71 102 -78 76 -11 146 83 151 204 1 34 5 62 8 62 3 0 43 -32
89 -70 46 -39 88 -70 92 -70 14 0 10 32 -10 75 -62 136 -273 221 -460 184z"/>
<path d="M5873 10626 c-57 -19 -100 -47 -152 -99 -41 -43 -47 -67 -16 -67 7 0
43 16 79 35 37 19 70 35 74 35 5 0 7 -37 5 -82 -5 -97 11 -139 66 -175 67 -45
125 -22 168 64 23 48 28 71 28 131 0 39 1 72 1 72 15 0 94 -43 142 -76 116
-81 142 -42 40 60 -82 80 -151 107 -293 112 -67 3 -114 -1 -142 -10z"/>
<path d="M4331 9464 c-16 -12 -21 -24 -19 -47 3 -29 6 -32 36 -32 36 0 58 -22
188 -194 251 -330 593 -454 916 -331 83 31 196 108 250 171 54 62 59 67 115
115 34 29 45 33 61 25 15 -8 23 -7 32 4 10 12 8 21 -7 47 -28 48 -64 49 -103
4 -17 -19 -40 -38 -50 -41 -10 -3 -82 1 -159 10 -172 18 -239 19 -315 1 -54
-13 -61 -12 -91 5 -86 51 -227 82 -420 94 -189 11 -189 11 -255 72 -33 30 -66
67 -73 82 -9 20 -20 26 -48 28 -20 1 -46 -5 -58 -13z m319 -201 c0 -7 -39 17
-46 28 -3 6 5 3 20 -6 14 -10 26 -19 26 -22z m-109 -40 c13 -16 12 -17 -3 -4
-10 7 -18 15 -18 17 0 8 8 3 21 -13z m208 -9 c14 -12 -19 -1 -35 12 -18 14
-18 14 6 3 14 -6 27 -13 29 -15z m-73 -72 c-5 -4 -66 26 -66 33 0 3 16 -3 35
-12 19 -9 33 -18 31 -21z m1004 18 c-8 -5 -19 -10 -25 -10 -5 0 -3 5 5 10 8 5
20 10 25 10 6 0 3 -5 -5 -10z m-673 -36 c-3 -3 -12 -4 -19 -1 -8 3 -5 6 6 6
11 1 17 -2 13 -5z m570 0 c-3 -3 -12 -4 -19 -1 -8 3 -5 6 6 6 11 1 17 -2 13
-5z m-520 -10 c-3 -3 -12 -4 -19 -1 -8 3 -5 6 6 6 11 1 17 -2 13 -5z m480 0
c-3 -3 -12 -4 -19 -1 -8 3 -5 6 6 6 11 1 17 -2 13 -5z m-747 -19 c14 -8 21
-14 15 -14 -5 0 -21 6 -35 14 -14 8 -20 14 -15 14 6 0 21 -6 35 -14z m323 8
c-7 -2 -19 -2 -25 0 -7 3 -2 5 12 5 14 0 19 -2 13 -5z m380 0 c-7 -2 -19 -2
-25 0 -7 3 -2 5 12 5 14 0 19 -2 13 -5z m-295 -10 c-10 -2 -26 -2 -35 0 -10 3
-2 5 17 5 19 0 27 -2 18 -5z m235 0 c-7 -2 -21 -2 -30 0 -10 3 -4 5 12 5 17 0
24 -2 18 -5z m293 -8 c-11 -8 -25 -15 -30 -15 -6 1 0 7 14 15 32 19 40 18 16
0z m-439 -1 c-3 -3 -12 -4 -19 -1 -8 3 -5 6 6 6 11 1 17 -2 13 -5z m383 -24
c-8 -5 -19 -10 -25 -10 -5 0 -3 5 5 10 8 5 20 10 25 10 6 0 3 -5 -5 -10z
m-663 -36 c-3 -3 -12 -4 -19 -1 -8 3 -5 6 6 6 11 1 17 -2 13 -5z m560 0 c-3
-3 -12 -4 -19 -1 -8 3 -5 6 6 6 11 1 17 -2 13 -5z m-510 -10 c-3 -3 -12 -4
-19 -1 -8 3 -5 6 6 6 11 1 17 -2 13 -5z m66 -11 c-7 -2 -19 -2 -25 0 -7 3 -2
5 12 5 14 0 19 -2 13 -5z m350 0 c-7 -2 -19 -2 -25 0 -7 3 -2 5 12 5 14 0 19
-2 13 -5z m-235 -10 c-16 -2 -40 -2 -55 0 -16 2 -3 4 27 4 30 0 43 -2 28 -4z
m165 0 c-13 -2 -35 -2 -50 0 -16 2 -5 4 22 4 28 0 40 -2 28 -4z"/>
<path d="M6510 7421 c-69 -27 -177 -71 -240 -98 -236 -102 -563 -213 -627
-213 -11 0 -37 -18 -58 -41 l-40 -41 40 7 c139 23 426 113 620 195 202 85 488
242 439 240 -5 -1 -65 -23 -134 -49z m50 -7 c-65 -38 -290 -146 -395 -189
-185 -77 -555 -188 -572 -171 -16 16 29 37 137 65 186 48 282 83 685 250 182
75 216 86 145 45z"/>
<path d="M8550 4980 c-14 -4 -44 -17 -67 -28 -35 -19 -56 -22 -135 -19 -92 2
-94 1 -143 -33 -47 -32 -53 -34 -127 -32 -47 1 -79 -2 -83 -9 -13 -19 8 -28
88 -35 77 -7 78 -7 137 30 l60 37 84 -7 84 -7 59 37 c32 20 64 36 71 36 13 0
17 26 5 33 -5 2 -19 1 -33 -3z"/>
<path d="M8547 4754 c-43 -23 -56 -24 -165 -22 l-117 3 -55 -35 c-47 -30 -64
-35 -118 -36 -106 -2 -112 -43 -7 -52 50 -4 64 0 140 38 79 39 89 41 138 35
82 -12 131 -8 178 13 49 22 84 55 74 71 -9 15 -13 14 -68 -15z"/>
<path d="M8467 4284 c-36 -24 -40 -25 -62 -10 -13 9 -41 16 -62 16 -106 0
-174 -124 -126 -228 9 -21 63 -83 119 -139 114 -115 136 -124 181 -75 29 31
50 70 87 164 54 137 53 220 -4 271 -39 35 -83 35 -133 1z m102 -50 c13 -17 21
-40 20 -63 l-2 -36 -6 42 c-8 45 -26 73 -47 73 -8 0 -34 -18 -59 -41 -47 -43
-56 -43 -88 -2 -36 45 -106 18 -122 -48 -12 -50 13 -89 142 -213 l61 -59 38
74 c20 41 45 97 56 124 10 28 16 37 13 20 -7 -36 -95 -225 -106 -225 -4 0 -50
42 -102 93 -125 123 -144 177 -81 240 36 36 70 34 111 -5 l34 -33 32 37 c48
55 76 61 106 22z"/>
<path d="M7690 3570 c-37 -37 9 -85 51 -51 25 20 21 44 -10 61 -17 8 -24 7
-41 -10z"/>
<path d="M2061 4624 c0 -11 3 -14 6 -6 3 7 2 16 -1 19 -3 4 -6 -2 -5 -13z"/>
<path d="M1687 4363 c-12 -11 -7 -50 7 -62 21 -18 56 3 56 33 0 29 -44 49 -63
29z"/>
<path d="M1631 3581 c-26 -17 -4 -41 37 -41 29 0 51 -9 83 -33 85 -65 101 -70
213 -62 95 6 104 5 151 -19 28 -14 56 -26 63 -26 21 0 13 38 -14 59 -45 35
-91 44 -195 37 l-97 -6 -48 33 c-94 65 -154 83 -193 58z"/>
<path d="M1853 3574 c-9 -23 6 -32 70 -39 54 -7 59 -6 55 11 -7 38 -112 62
-125 28z"/>
</g>
</svg>
